<?xml version="1.0" encoding="utf-8"?>
<!-- Generator: Adobe Illustrator 16.0.3, SVG Export Plug-In . SVG Version: 6.00 Build 0)  -->
<!DOCTYPE svg PUBLIC "-//W3C//DTD SVG 1.1//EN" "http://www.w3.org/Graphics/SVG/1.1/DTD/svg11.dtd">
<svg version="1.1" id="Layer_1" xmlns="http://www.w3.org/2000/svg" xmlns:xlink="http://www.w3.org/1999/xlink" x="0px" y="0px"
	 width="313.576px" height="294.944px" viewBox="0 0 313.576 294.944" enable-background="new 0 0 313.576 294.944"
	 xml:space="preserve">
<path fill="none" stroke="#1D2328" stroke-width="5" stroke-miterlimit="10" d="M268.874,73.351c0,2.136-1.729,3.865-3.865,3.865
	H48.565c-2.137,0-3.865-1.729-3.865-3.865V38.245c0-2.137,1.729-3.865,3.865-3.865h216.443c2.136,0,3.865,1.729,3.865,3.865V73.351z
	"/>
<path fill="none" stroke="#1D2328" stroke-width="5" stroke-miterlimit="10" d="M268.874,134.467c0,2.136-1.729,3.865-3.865,3.865
	H48.565c-2.137,0-3.865-1.729-3.865-3.865V99.361c0-2.136,1.729-3.865,3.865-3.865h216.443c2.136,0,3.865,1.729,3.865,3.865V134.467
	z"/>
<path fill="none" stroke="#1D2328" stroke-width="5" stroke-miterlimit="10" d="M268.874,195.583c0,2.136-1.729,3.865-3.865,3.865
	H48.565c-2.137,0-3.865-1.729-3.865-3.865v-35.106c0-2.136,1.729-3.865,3.865-3.865h216.443c2.136,0,3.865,1.729,3.865,3.865
	V195.583z"/>
<path fill="none" stroke="#1D2328" stroke-width="5" stroke-miterlimit="10" d="M268.874,256.7c0,2.137-1.729,3.865-3.865,3.865
	H48.565c-2.137,0-3.865-1.729-3.865-3.865v-35.106c0-2.137,1.729-3.865,3.865-3.865h216.443c2.136,0,3.865,1.729,3.865,3.865V256.7z
	"/>
<rect x="52.113" y="41.785" fill="#1D2328" width="179.726" height="28.021"/>
<rect x="52.113" y="102.905" fill="#1D2328" width="130.763" height="28.021"/>
<rect x="52.113" y="164.018" fill="#1D2328" width="113.362" height="28.021"/>
<rect x="52.113" y="225.134" fill="#1D2328" width="56.685" height="28.022"/>
</svg>
