<?xml version="1.0" encoding="utf-8"?>
<!-- Generator: Adobe Illustrator 16.0.3, SVG Export Plug-In . SVG Version: 6.00 Build 0)  -->
<!DOCTYPE svg PUBLIC "-//W3C//DTD SVG 1.1//EN" "http://www.w3.org/Graphics/SVG/1.1/DTD/svg11.dtd">
<svg version="1.1" id="Layer_1" xmlns="http://www.w3.org/2000/svg" xmlns:xlink="http://www.w3.org/1999/xlink" x="0px" y="0px"
	 width="313.576px" height="105px" viewBox="0 95.972 313.576 105" enable-background="new 0 95.972 313.576 105"
	 xml:space="preserve">
<g>
	<g>
		<g>
			<g>
				<g>
					<path fill="#1D2328" d="M156.763,178.886l-1.573-6.351c-0.232-2.331-0.582-4.661-1.106-6.935
						C155.714,172.011,156.588,177.488,156.763,178.886z"/>
					<path fill="#1D2328" d="M154.083,165.602c-0.524-1.98-1.049-4.02-1.748-6.001C153.093,161.523,153.675,163.562,154.083,165.602
						z"/>
					<path fill="#1D2328" d="M118.542,126.856c8.506,5.187,21.441,14.158,23.888,15.731c4.37,2.797,7.633,9.847,9.905,17.013
						c-1.807-5.244-4.603-10.08-9.031-14.216c-7.865-7.458-49.35-31.579-57.04-36.124c-4.952-2.971-11.07-6.292-14.799-8.332
						c6.176,3.146,18.527,9.497,19.343,9.788C93.08,111.649,109.22,121.263,118.542,126.856z"/>
				</g>
			</g>
			<g>
				<g>
					<path fill="#1D2328" d="M169.462,150.294c-12.894,6.699-11.831,25.55-11.831,25.55l3.315-0.935
						c1.576-10.848,4.539-19.318,5.777-20.335c9.689-7.83,62.949-32.867,72.502-37.38c6.151-2.953,13.815-6.224,18.373-8.237
						c-7.66,3.082-23.055,9.306-23.992,9.583c-2.812,0.892-22.859,10.441-34.44,16.002
						C188.599,139.704,172.504,148.722,169.462,150.294z"/>
				</g>
			</g>
		</g>
	</g>
	<path fill="#1D2328" d="M308.007,113.32c-0.347-1.593-2.549-2.364-6.917-0.91c-4.368,1.46-126.907,67.186-126.907,67.186
		c-0.053,0.029-0.137,0.064-0.192,0.094v-0.04l0.192-0.054c0,0,5.278-6.373,18.754-13.29c13.474-6.922,97.229-52.075,99.416-53.168
		c0,0-1.82-0.816-6.922-1.499c-5.097-0.683-10.926-2.504-17.48-2.87c0,0-59.465,22.696-72.102,29.133
		c-5.074,2.583-16.877,7.299-25.949,14.221h-1.28c-2.013,0-3.642,1.63-3.642,3.642c0,0.21,0.026,0.413,0.062,0.613
		c-3.233,3.281-5.679,6.946-6.578,11.028c-0.744,3.385-1.278,6.734-1.519,11.099h-0.307c0,0,0.779-24.813-18.641-36.465
		c-11.682-7.012-30.919-17.012-45.666-24.244c-9.764-4.785-17.56-8.353-19.88-9.025c-5.096-1.474-9.074-3.148-9.994-3.547
		c1.454,0.636,11.275,4.945,18.675,8.649c8.014,4.002,51.158,25.016,59.539,31.857c4.431,3.619,7.509,7.954,9.72,12.704
		c-8.713-10.435-26.171-17.229-32.66-20.531c-12.639-6.437-72.102-29.133-72.102-29.133c-6.556,0.366-12.381,2.188-17.479,2.87
		c-5.099,0.683-6.92,1.499-6.92,1.499c2.185,1.093,85.94,46.247,99.413,53.168c13.476,6.917,18.755,13.29,18.755,13.29
		S16.858,113.87,12.489,112.41c-4.371-1.455-6.573-0.684-6.919,0.91c-0.359,1.639,1.821,4.19,4.732,5.646
		c2.915,1.455,128.182,67.002,128.182,67.002l1.457,3.458c0,0,2.185,5.284,4.369,6.012c2.185,0.728,5.099,0,12.479,0
		s10.294,0.728,12.479,0c2.184-0.728,4.367-6.012,4.367-6.012l1.457-3.458c0,0,125.271-65.548,128.186-67.002
		C306.187,117.511,308.368,114.958,308.007,113.32z"/>
</g>
</svg>
