<?xml version="1.0" encoding="utf-8"?>
<!-- Generator: Adobe Illustrator 16.0.3, SVG Export Plug-In . SVG Version: 6.00 Build 0)  -->
<!DOCTYPE svg PUBLIC "-//W3C//DTD SVG 1.1//EN" "http://www.w3.org/Graphics/SVG/1.1/DTD/svg11.dtd">
<svg version="1.1" id="Layer_1" xmlns="http://www.w3.org/2000/svg" xmlns:xlink="http://www.w3.org/1999/xlink" x="0px" y="0px"
	 width="313.576px" height="294.944px" viewBox="0 0 313.576 294.944" enable-background="new 0 0 313.576 294.944"
	 xml:space="preserve">
<g>
	<g>
		<path fill="#1D2328" d="M270.778,65.146H42.799c-10.173,0-18.425,8.248-18.425,18.42v154.293c0,10.172,8.252,18.42,18.425,18.42
			h227.979c10.176,0,18.421-8.249,18.421-18.42V83.566C289.199,73.394,280.954,65.146,270.778,65.146z M137.327,111.595h38.766
			v3.076c0,2.547-2.061,4.604-4.604,4.604h-29.557c-2.543,0-4.604-2.057-4.604-4.604V111.595z M254.353,133.08h-97.566H59.225
			L44.833,96.811l12.272,25.454v-0.004c0.489,1.019,1.904,3.621,2.621,4.487c0.721,0.862,1.513,1.583,2.88,1.943
			c1.367,0.361,2.229,0.361,3.883,0.361h90.297h90.297c1.654,0,2.52,0,3.888-0.361c1.367-0.36,2.159-1.082,2.876-1.943
			c0.721-0.866,2.132-3.468,2.625-4.487v0.004l12.273-25.454L254.353,133.08z"/>
		<path fill="#1D2328" d="M193.636,47.877c0,2.543-2.062,4.604-4.608,4.604H124.55c-2.543,0-4.604-2.061-4.604-4.604v-4.608
			c0-2.547,2.062-4.604,4.604-4.604h64.478c2.547,0,4.608,2.057,4.608,4.604V47.877z"/>
		<path fill="#1D2328" d="M127.43,70.04c0,2.069-1.677,3.742-3.746,3.742l0,0c-2.069,0-3.738-1.673-3.738-3.742V42.407
			c0-2.069,1.669-3.742,3.738-3.742l0,0c2.069,0,3.746,1.673,3.746,3.742V70.04z"/>
	</g>
	<path fill="#1D2328" d="M193.636,70.667c0,2.069-1.677,3.742-3.746,3.742l0,0c-2.068,0-3.738-1.673-3.738-3.742V43.034
		c0-2.069,1.67-3.742,3.738-3.742l0,0c2.069,0,3.746,1.673,3.746,3.742V70.667z"/>
</g>
</svg>
