<?xml version="1.0" encoding="utf-8"?>
<!-- Generator: Adobe Illustrator 16.0.3, SVG Export Plug-In . SVG Version: 6.00 Build 0)  -->
<!DOCTYPE svg PUBLIC "-//W3C//DTD SVG 1.1//EN" "http://www.w3.org/Graphics/SVG/1.1/DTD/svg11.dtd">
<svg version="1.1" id="Layer_1" xmlns="http://www.w3.org/2000/svg" xmlns:xlink="http://www.w3.org/1999/xlink" x="0px" y="0px"
	 width="313.576px" height="294.944px" viewBox="0 0 313.576 294.944" enable-background="new 0 0 313.576 294.944"
	 xml:space="preserve">
<g>
	<g>
		<path fill="#1D2328" d="M76.751,82.037c0.02-0.013,0.01-0.033,0.026-0.062c-0.007-0.01-0.026-0.01-0.026-0.03
			C76.751,81.974,76.751,82.003,76.751,82.037z"/>
		<path fill="#1D2328" d="M264.616,243.84c-0.277-1.704-10.823-13.324-10.823-13.324C234.264,210.602,85.609,72.763,85.609,72.763
			s0,0-3.296,2.874c-2.834,2.472-4.943,5.503-5.536,6.337c1.486,1.144,5.517,4.712,15.66,14.411
			c24.71,23.609,53.483,56.334,76.598,80.638c23.899,25.115,65.255,74.113,65.861,77.224c0.62,3.091-0.765,3.434-0.765,3.434
			s0,0,2.218,1.826c2.218,1.829,4.341,2.643,7.201,1.638c2.874-0.992,18.136-8.747,19.568-10.727
			C264.557,248.441,264.88,245.551,264.616,243.84z"/>
	</g>
	<path fill="#1D2328" d="M113.295,29.031c-5.896,0.25-18.105,3.648-25.688,6.294c-4.469,1.569-11.248,6.41-16.122,10.144
		c-1.42,0.765-2.847,1.77-3.915,2.712c-0.079,0.059-0.108,0.092-0.197,0.162c-0.805,0.722-1.431,1.305-1.431,1.305l0.026,0.043
		c-5.467,5.26-15.746,16.026-16.629,16.89c-1.078,1.084-0.827,3.335-0.268,5.632c0.584,2.297,3.214,5.636,1.467,7.373
		c-1.727,1.736-4.778-1.279-6.684-0.593c-1.911,0.685-3.858,3.055-7.154,7.151c-3.272,4.077-0.959,5.079-0.451,5.804
		c0.511,0.725,7.682,7.148,7.682,7.148s8.479,11.125,12.335,8.479c3.816-2.673,6.054-5.616,6.696-6.71
		c0.633-1.104,2.268-4.669,1.378-6.419c-0.887-1.743-2.089-3.164,0.182-5.652c0.801-0.903,5.961,1.809,7.108,2.953
		c1.14,1.137,2.59,1.266,4.076,0.593c1.496-0.682,18.333-18.336,18.333-18.336s3.447-3.365,2.735-6.156
		c-0.422-1.608-3.477-5.767-6.4-9.412c1.76-4.528,5.646-8.552,7.89-10.796c2.456-2.455,10.038-8.815,16.201-11.686
		c6.149-2.864,17.757-3.566,17.757-3.566l0.615-1.846C132.837,30.541,119.19,28.781,113.295,29.031z"/>
</g>
<g>
	<path fill="#1D2328" d="M61.417,198.151c0,0-2.502,1.799-7.079,5.573c-4.541,3.787-6.199,8.848-8.044,12.375
		c-1.833,3.526,0.933,11.699,4.949,20.966c4.008,9.313,21.25,24.713,23.979,26.47c2.742,1.75,15.087,7.804,20.076,6.258
		c5.029-1.559,7.3-11.288,6.328-13.716c-0.937-2.461-7.343-2.37-11.301-3.246c-3.958-0.86-8.203-2.429-13.106-3.757
		c-4.917-1.285-8.832-8.206-12.421-13.254c-3.556-5.049-2.237-11.979-0.609-15.011c1.628-3.055,6.294-2.452,6.294-2.452
		s-2.155-2.399,13.156,6.951c5.635,3.457,9.523,6.897,12.411,9.86l2.039,2.162c0.201,0.217,0.442,0.468,0.643,0.679
		c0.182,0.241,8.517,10.635,11.852,12.111c3.414,1.5,5.22,2.01,7.514,0.692c2.297-1.285,3.73-3.856,5.059-5.56
		c1.361-1.747,2.139-4.874,2.139-4.874S79.513,202.409,61.417,198.151z"/>
	<path fill="#1D2328" d="M274.308,42.296c-2.659-1.994-7.319-6.413-11.057-9.175c-4.465-3.306-11.264-8.387-14.797-8.216
		c-3.559,0.178-9.523,1.898-16.253,6.328c-6.696,4.416-167.252,168.055-167.252,168.055l49.357,33.357l-1.101-1.869l8.664,9.274
		l-4.591-7.725l8.516,2.959l-4.591-7.708l8.52,2.959l-4.614-7.708l8.509,2.959l-4.587-7.725l8.522,2.972l-4.598-7.721l8.525,2.963
		l-4.61-7.722l8.499,2.973l-4.567-7.721l8.499,2.972l-4.584-7.725l8.516,2.966l-4.601-7.731l8.516,2.979l-4.601-7.721l8.506,2.949
		l-4.591-7.708l8.489,2.982l-4.574-7.731l8.51,2.959l-4.581-7.711l8.495,2.972l-4.587-7.721l8.516,2.949l-4.601-7.711l8.509,2.963
		l-4.584-7.702l8.506,2.953l-4.601-7.725l8.51,2.973l-4.578-7.731l8.506,2.973l-4.591-7.711l8.516,2.953l-4.61-7.711l8.516,2.973
		l-4.581-7.731l8.496,2.969l-4.581-7.722l8.496,2.982l-4.587-7.744l8.495,2.969L207.392,123l8.522,2.973l-4.591-7.738l8.486,2.972
		l-4.587-7.731l8.516,2.972l-4.595-7.711l8.516,2.959l-4.584-7.718l8.483,2.959l-4.578-7.711l8.51,2.963l-4.595-7.712l8.516,2.963
		l-4.587-7.711l8.485,2.943l-4.58-7.711l8.516,2.969l-4.601-7.712l8.528,2.95l-4.597-7.722l8.482,2.973l-4.577-7.708l8.525,2.956
		l-4.601-7.722l8.506,2.973l-4.591-7.708l8.506,2.949l-4.591-7.721l8.506,2.979l-4.577-7.738l8.495,2.979l-4.58-7.721l8.516,2.962"
		/>
</g>
</svg>
