<?xml version="1.0" encoding="utf-8"?>
<!-- Generator: Adobe Illustrator 16.0.3, SVG Export Plug-In . SVG Version: 6.00 Build 0)  -->
<!DOCTYPE svg PUBLIC "-//W3C//DTD SVG 1.1//EN" "http://www.w3.org/Graphics/SVG/1.1/DTD/svg11.dtd">
<svg version="1.1" id="Layer_1" xmlns="http://www.w3.org/2000/svg" xmlns:xlink="http://www.w3.org/1999/xlink" x="0px" y="0px"
	 width="313.576px" height="294.944px" viewBox="0 0 313.576 294.944" enable-background="new 0 0 313.576 294.944"
	 xml:space="preserve">
<path fill="#1D2328" d="M289.871,131.404H269.09c-2.528-17.418-9.118-33.506-18.761-47.31l15.122-15.126
	c-7.347-10.148-16.08-19.222-25.924-26.957l-15.454,15.455c-13.395-9.635-29.018-16.353-45.955-19.23V15.102
	c-6.949-1.106-14.067-1.708-21.33-1.708c-5.438,0-10.789,0.361-16.06,0.994v23.847c-16.404,2.79-31.575,9.178-44.685,18.332
	L78.285,38.813c-10.148,7.342-19.223,16.072-26.954,25.915L69.423,82.82c-9.142,12.697-15.662,27.398-18.769,43.333H24.418
	c-1.114,6.942-1.707,14.06-1.707,21.322c0,5.435,0.36,10.79,0.994,16.064h26.052c2.34,16.112,8.151,31.085,16.645,44.175
	l-18.272,18.268c7.347,10.148,16.08,19.222,25.924,26.958l17.702-17.707c12.678,9.787,27.531,16.889,43.719,20.456v24.16
	c6.946,1.106,14.056,1.699,21.314,1.699c5.442,0,10.797-0.361,16.072-0.994v-23.078c17.105-2.076,33.009-8.032,46.8-16.985
	l15.64,15.639c10.147-7.342,19.222-16.08,26.953-25.923l-15.07-15.069c10.32-13.363,17.655-29.13,21.01-46.34h20.966
	c1.11-6.95,1.707-14.068,1.707-21.322C290.865,142.033,290.505,136.678,289.871,131.404z M226.566,168.798
	c-1.977,6.22-4.802,12.064-8.329,17.402c-6.974,10.573-16.732,19.094-28.22,24.649c-5.383,2.605-11.118,4.585-17.162,5.755
	c-4.349,0.842-8.833,1.314-13.435,1.314c-8.42,0-16.464-1.555-23.951-4.265c-5.234-1.899-10.2-4.353-14.773-7.366
	c-10.572-6.974-19.098-16.737-24.652-28.224c-2.221-4.593-3.964-9.442-5.154-14.533c-1.206-5.162-1.912-10.524-1.912-16.056
	c0-7.438,1.171-14.597,3.307-21.33c1.583-4.978,3.748-9.691,6.337-14.124c6.396-10.941,15.61-20.023,26.705-26.172
	c4.813-2.669,9.983-4.745,15.402-6.228c5.964-1.644,12.212-2.589,18.692-2.589c6.485,0,12.733,0.946,18.697,2.589
	c5.939,1.627,11.555,4.008,16.757,7.046c10.938,6.396,20.02,15.607,26.172,26.701c3.099,5.587,5.419,11.655,6.91,18.036
	c1.206,5.17,1.911,10.533,1.911,16.072C229.868,154.906,228.698,162.064,226.566,168.798z"/>
</svg>
